<?xml version="1.0" encoding="UTF-8"?>
<svg id="Camada_2" data-name="Camada 2" xmlns="http://www.w3.org/2000/svg" viewBox="0 0 16 16">
  <defs>
    <style>
      .cls-1 {
        fill: #fff;
      }

      .cls-2 {
        fill: #171717;
      }
    </style>
  </defs>
  <circle class="cls-1" cx="8" cy="8" r="7.84"/>
  <path class="cls-2" d="M5.87,4.87v3.63c0,.34-.09.61-.28.82s-.46.31-.81.31-.62-.1-.8-.31c-.18-.21-.27-.48-.27-.83v-3.63h-1.97v3.66c0,.84.26,1.48.8,1.91.53.44,1.28.66,2.26.66s1.73-.22,2.26-.66c.53-.44.79-1.07.79-1.91v-3.66h-1.98Z"/>
  <path class="cls-2" d="M10.45,6.35l1.29-.35,1.3-.32-.32,1.3-.35,1.29-.57-.56-2.64,2.64v.66h1.97v-1.98h1.47c.38,0,.72-.09,1.02-.26s.53-.42.69-.73.25-.66.25-1.04v-.12c0-.38-.08-.72-.25-1.03s-.4-.55-.69-.72-.64-.26-1.02-.26h-3.44v3.89l1.85-1.85"/>
</svg>