<?xml version="1.0" encoding="UTF-8"?>
<svg id="Camada_1" data-name="Camada 1" xmlns="http://www.w3.org/2000/svg" viewBox="0 0 250 50">
  <defs>
    <style>
      .cls-1 {
        fill: #171717;
      }

      .cls-2 {
        fill: #a1a1a1;
      }
    </style>
  </defs>
  <path class="cls-2" d="M43.51,14.5V4.43H9.57v41.99h13.49v-15.08h17.58v-9.64h-17.58v-7.2h20.45Z"/>
  <path class="cls-2" d="M50.34,2.17v44.25h12.15V2.17h-12.15Z"/>
  <path class="cls-2" d="M91.42,14.2v18.92c0,1.42-.47,2.62-1.4,3.6-.94.98-2.16,1.46-3.66,1.46-1.3,0-2.31-.42-3.02-1.25-.71-.83-1.07-1.94-1.07-3.33V14.2h-12.15v20.87c0,3.91.94,6.9,2.81,8.97,1.87,2.08,4.68,3.11,8.42,3.11,2.28,0,4.45-.5,6.5-1.5,2.05-1,3.71-2.37,4.97-4.12l.79,4.88h9.95V14.2h-12.15Z"/>
  <path class="cls-2" d="M135.61,29.64l11.35-15.44h-13.43l-5.13,8.55h-.24l-5.13-8.55h-14.28l11.17,15.14-12.39,17.09h13.49l6.16-10.13h.24l6.1,10.13h14.16l-12.09-16.79Z"/>
  <path class="cls-1" d="M180.84,4.43v24.9c0,2.32-.64,4.19-1.92,5.62-1.28,1.42-3.12,2.14-5.52,2.14s-4.23-.7-5.49-2.11c-1.26-1.4-1.89-3.29-1.89-5.65V4.43h-13.49v25.09c0,5.74,1.82,10.11,5.46,13.12,3.64,3.01,8.8,4.52,15.47,4.52s11.82-1.51,15.44-4.52c3.62-3.01,5.43-7.39,5.43-13.12V4.43h-13.49Z"/>
  <path class="cls-1" d="M212.18,14.5l8.86-2.37,8.91-2.21-2.21,8.91-2.36,8.87-3.93-3.85-18.1,18.1v4.47h13.49v-13.55h10.07c2.6,0,4.92-.6,6.96-1.8,2.03-1.2,3.62-2.86,4.76-4.97,1.14-2.12,1.71-4.48,1.71-7.08v-.79c0-2.6-.57-4.95-1.71-7.05s-2.73-3.74-4.76-4.94-4.35-1.8-6.96-1.8h-23.56v26.64l12.65-12.65"/>
</svg>