<svg width="300" height="60" viewBox="0 0 300 60" fill="none" xmlns="http://www.w3.org/2000/svg">
<g clip-path="url(#clip0_1_4)">
<path d="M44.1219 16.4437V3.01405H4.57764e-05V59.0131H17.537V38.902H40.3909V26.0458H17.537V16.4437H44.1219Z" fill="#A1A1A1"/>
<path d="M53.0009 3.05176e-05V59.0131H68.7958V3.05176e-05H53.0009Z" fill="#A1A1A1"/>
<path d="M106.405 16.0436V41.2759C106.405 43.1696 105.794 44.77 104.585 46.0769C103.363 47.3839 101.777 48.024 99.8267 48.024C98.1367 48.024 96.8237 47.4639 95.9007 46.357C94.9777 45.2501 94.5097 43.7697 94.5097 41.916V16.0436H78.7148V43.8764C78.7148 49.0909 79.9368 53.0785 82.3678 55.8391C84.7988 58.613 88.4518 59.9867 93.3137 59.9867C96.2777 59.9867 99.0987 59.3199 101.764 57.9862C104.429 56.6526 106.587 54.8255 108.225 52.4917L109.252 58.9998H122.187V16.0436H106.392H106.405Z" fill="#A1A1A1"/>
<path d="M163.851 36.6348L178.606 16.0436H161.147L154.478 27.4461H154.167L147.498 16.0436H128.934L143.455 36.2348L127.348 59.0265H144.885L152.893 45.5168H153.205L161.134 59.0265H179.542L163.825 36.6348H163.851Z" fill="#A1A1A1"/>
<path d="M222.65 3.01405V36.2214C222.65 39.3154 221.818 41.8093 220.154 43.7164C218.49 45.6102 216.098 46.5704 212.978 46.5704C209.858 46.5704 207.479 45.6368 205.841 43.7564C204.203 41.8893 203.384 39.3688 203.384 36.2214V3.01405H185.847V36.4748C185.847 44.1298 188.213 49.9578 192.945 53.972C197.677 57.9862 204.385 60 213.056 60C221.727 60 228.422 57.9862 233.128 53.972C237.834 49.9578 240.187 44.1165 240.187 36.4748V3.01405H222.65Z" fill="#171717"/>
<path d="M263.392 16.4437L274.91 13.283L286.493 10.3357L283.62 22.2183L280.552 34.0476L275.443 28.9131L251.913 53.0518V59.0131H269.45V40.9425H282.541C285.921 40.9425 288.937 40.1423 291.589 38.5419C294.228 36.9416 296.295 34.7277 297.777 31.9138C299.259 29.0865 300 25.9391 300 22.4717V21.4181C300 17.9507 299.259 14.8167 297.777 12.016C296.295 9.21543 294.228 7.02827 291.589 5.42792C288.95 3.82756 285.934 3.02738 282.541 3.02738H251.913V38.5553L268.358 21.6849" fill="#171717"/>
</g>
<defs>
<clipPath id="clip0_1_4">
<rect width="300" height="60" fill="white"/>
</clipPath>
</defs>
</svg>
